<mxfile host="app.diagrams.net" modified="2024-01-07T15:28:13.908Z" agent="Mozilla/5.0 (X11; Ubuntu; Linux x86_64; rv:121.0) Gecko/20100101 Firefox/121.0" version="22.1.17" etag="mD6Zd0lWo5UeNnXAA62Q" type="github">
  <diagram name="Page-1" id="S85ty2UTvnWb4EEtt6KR">
    <mxGraphModel>
      <root>
        <mxCell id="0" />
        <mxCell id="1" parent="0" />
      </root>
    </mxGraphModel>
  </diagram>
</mxfile>
